<?xml version="1.0" standalone="no"?>
<!DOCTYPE svg PUBLIC "-//W3C//DTD SVG 20010904//EN"
 "http://www.w3.org/TR/2001/REC-SVG-20010904/DTD/svg10.dtd">
<svg version="1.0" xmlns="http://www.w3.org/2000/svg"
 width="346.000000pt" height="148.000000pt" viewBox="0 0 346.000000 148.000000"
 preserveAspectRatio="xMidYMid meet">

<g transform="translate(0.000000,148.000000) scale(0.100000,-0.100000)"
fill="#000000" stroke="none">
<path d="M220 1210 c-19 -19 -20 -33 -20 -485 l0 -464 22 -21 c27 -25 69 -26
99 -1 l24 19 3 358 3 358 244 -244 245 -245 0 -93 c0 -141 29 -187 106 -168
53 14 55 34 52 523 l-3 445 -24 19 c-13 10 -37 19 -54 19 -27 0 -52 -20 -177
-145 l-145 -145 -145 145 c-127 127 -149 145 -177 145 -20 0 -41 -8 -53 -20z
m620 -377 l0 -137 -70 69 -70 69 67 68 c37 38 69 68 70 68 2 0 3 -62 3 -137z"/>
<path d="M1448 1213 c-32 -36 -368 -723 -368 -752 0 -20 9 -36 26 -50 24 -19
40 -21 170 -21 l144 0 0 -50 c0 -55 20 -104 45 -114 31 -12 65 -6 85 14 19 19
20 33 20 224 0 180 -2 206 -17 224 -20 24 -46 29 -85 19 -31 -8 -48 -49 -48
-118 l0 -49 -70 0 c-38 0 -70 2 -70 5 0 3 65 136 145 295 90 180 145 301 145
320 0 17 -9 39 -20 50 -25 25 -81 26 -102 3z"/>
<path d="M1687 1218 c-9 -7 -21 -26 -27 -41 -15 -43 -13 -261 4 -300 20 -45
337 -357 363 -357 12 0 29 3 38 6 18 7 45 55 45 80 0 10 -67 86 -150 169
l-150 151 0 77 0 77 128 0 c153 0 191 -9 247 -61 65 -60 75 -100 75 -299 0
-162 -1 -168 -27 -220 -32 -61 -85 -109 -135 -120 -32 -7 -37 -3 -184 142
-125 122 -157 148 -180 148 -52 -1 -93 -55 -72 -96 6 -10 85 -94 177 -187 160
-161 167 -167 206 -167 22 0 61 7 86 14 118 36 192 99 242 204 32 67 32 68 35
256 5 228 -4 281 -62 368 -46 71 -119 126 -201 152 -67 21 -431 24 -458 4z"/>
<path d="M2518 1213 c-39 -45 -27 -104 25 -123 17 -5 112 -10 216 -10 l186 0
-221 -222 c-122 -123 -224 -231 -228 -241 -15 -45 28 -97 81 -97 23 0 620 596
626 625 4 26 -8 54 -31 73 -12 9 -93 12 -327 12 -285 0 -313 -2 -327 -17z"/>
<path d="M2807 643 c-159 -159 -295 -300 -303 -315 -20 -38 -18 -55 11 -83
l24 -25 311 0 c297 0 311 1 330 20 33 33 30 75 -6 108 -24 21 -32 22 -222 22
l-197 0 212 212 c117 117 219 226 227 242 17 33 5 80 -24 96 -53 28 -61 23
-363 -277z"/>
</g>
</svg>
